<svg width="64" height="40" viewBox="0 0 64 40" fill="none" xmlns="http://www.w3.org/2000/svg">
<path fill-rule="evenodd" clip-rule="evenodd" d="M17.2 0C14.3281 0 12 2.32812 12 5.2V34.8C12 37.6719 14.3281 40 17.2 40H46.8C49.6719 40 52 37.6719 52 34.8V5.2C52 2.32812 49.6719 0 46.8 0H17.2ZM45.8298 8.85099L41.1302 31.4564C41.0195 31.9901 40.3937 32.2319 39.9521 31.911L33.5367 27.2534C33.1473 26.9706 32.6162 26.9856 32.2433 27.2896L28.6864 30.189C28.2737 30.5266 27.6516 30.3385 27.4935 29.8301L25.7811 24.323C25.3034 22.7865 24.1413 21.5578 22.6339 20.9952L18.6428 19.5057C17.9946 19.2629 17.9891 18.3478 18.6354 18.0988L44.8229 7.9964C45.378 7.78171 45.9508 8.26804 45.8298 8.85099Z" fill="#3F2C03"/>
<path fill-rule="evenodd" clip-rule="evenodd" d="M39.5664 12.9387L27.0957 20.6194C26.6177 20.9143 26.3927 21.4915 26.5469 22.0319L27.8952 26.7696C27.9912 27.1053 28.4782 27.071 28.5249 26.7242L28.8753 24.1261C28.9415 23.6369 29.1747 23.186 29.5366 22.8494L39.8283 13.2827C40.021 13.1042 39.7904 12.8012 39.5664 12.9387Z" fill="#3F2C03"/>
</svg>
