<svg width="72" height="45" viewBox="0 0 72 45" fill="none" xmlns="http://www.w3.org/2000/svg">
<path fill-rule="evenodd" clip-rule="evenodd" d="M19.35 0C16.1191 0 13.5 2.61913 13.5 5.85V39.15C13.5 42.3809 16.1191 45 19.35 45H52.65C55.8809 45 58.5 42.3809 58.5 39.15V5.85C58.5 2.61913 55.8809 0 52.65 0H19.35ZM51.5585 9.95736L46.2715 35.3884C46.147 35.9888 45.4429 36.2609 44.9461 35.8999L37.7288 30.66C37.2907 30.3419 36.6932 30.3588 36.2738 30.7008L32.2722 33.9626C31.8079 34.3424 31.1081 34.1308 30.9302 33.5588L29.0038 27.3633C28.4663 25.6348 27.159 24.2525 25.4631 23.6196L20.9732 21.9439C20.244 21.6707 20.2377 20.6413 20.9649 20.3612L50.4257 8.99595C51.0503 8.75443 51.6946 9.30155 51.5585 9.95736Z" fill="#DCB45E"/>
<path fill-rule="evenodd" clip-rule="evenodd" d="M44.5122 14.5561L30.4826 23.1968C29.9449 23.5286 29.6918 24.178 29.8653 24.7859L31.3821 30.1158C31.49 30.4934 32.038 30.4548 32.0905 30.0647L32.4847 27.1419C32.5592 26.5916 32.8215 26.0843 33.2286 25.7056L44.8069 14.943C45.0237 14.7422 44.7642 14.4013 44.5122 14.5561Z" fill="#DCB45E"/>
</svg>
