<svg width="64" height="40" viewBox="0 0 64 40" fill="none" xmlns="http://www.w3.org/2000/svg">
<path d="M44.2924 28.5392H41.3862C40.2858 28.5392 39.9457 27.6643 37.9691 25.661C36.2473 23.9939 35.4857 23.7698 35.0629 23.7698C34.4694 23.7698 34.3 23.9392 34.3 24.7581V27.3829C34.3 28.0898 34.0746 28.5126 32.2114 28.5126C28.4529 28.2605 25.2226 26.2105 23.3474 23.223L23.3194 23.1763C21.1427 20.4728 19.5383 17.2145 18.7447 13.6508L18.7153 13.4947C18.7153 13.0719 18.8847 12.6758 19.7036 12.6758H22.6098C23.3434 12.6758 23.6262 13.0146 23.9102 13.8041C25.348 17.9547 27.7487 21.5958 28.737 21.5958C29.1038 21.5958 29.2732 21.4264 29.2732 20.4955V16.2022C29.1598 14.2256 28.1155 14.0576 28.1155 13.352C28.1275 12.9746 28.4369 12.6731 28.8157 12.6731C28.8277 12.6731 28.8384 12.6731 28.8504 12.6745H28.8491H33.4224C34.0439 12.6745 34.2693 13.0132 34.2693 13.7468V19.5352C34.2693 20.1554 34.5521 20.3821 34.7215 20.3821C35.0883 20.3821 35.4004 20.1554 36.0766 19.4792C37.4823 17.7627 38.684 15.7994 39.6003 13.6828L39.6616 13.5227C39.855 13.0386 40.3192 12.7025 40.862 12.7025C40.8873 12.7025 40.9113 12.7038 40.9367 12.7051H40.9327H43.8389C44.7138 12.7051 44.9125 13.1546 44.7138 13.7775C43.5481 16.3449 42.2384 18.5509 40.7206 20.5942L40.79 20.4955C40.4805 21.0036 40.3672 21.229 40.79 21.7959C41.0994 22.2187 42.117 23.0936 42.7946 23.8845C43.7749 24.8541 44.5964 25.9825 45.2166 27.2282L45.25 27.3015C45.5327 28.1178 45.1086 28.5419 44.2897 28.5419L44.2924 28.5392ZM38.1398 0H25.8602C14.6528 0 12 2.6528 12 13.8602V26.1398C12 37.3472 14.6528 40 25.8602 40H38.1398C49.3472 40 52 37.3472 52 26.1398V13.8602C52 2.6528 49.3179 0 38.1398 0Z" fill="#3F2C03"/>
</svg>
