<svg width="72" height="45" viewBox="0 0 72 45" fill="none" xmlns="http://www.w3.org/2000/svg">
<path d="M49.8289 32.1066H46.5594C45.3215 32.1066 44.9389 31.1223 42.7153 28.8687C40.7782 26.9931 39.9214 26.741 39.4458 26.741C38.7781 26.741 38.5875 26.9316 38.5875 27.8529V30.8057C38.5875 31.601 38.334 32.0766 36.2378 32.0766C32.0096 31.793 28.3755 29.4868 26.2658 26.1258L26.2343 26.0733C23.7856 23.0319 21.9805 19.3663 21.0878 15.3571L21.0548 15.1816C21.0548 14.7059 21.2453 14.2603 22.1666 14.2603H25.4361C26.2613 14.2603 26.5794 14.6414 26.899 15.5297C28.5165 20.1991 31.2173 24.2953 32.3291 24.2953C32.7418 24.2953 32.9323 24.1047 32.9323 23.0574V18.2275C32.8048 16.0038 31.6299 15.8147 31.6299 15.021C31.6434 14.5964 31.9915 14.2573 32.4177 14.2573C32.4312 14.2573 32.4432 14.2573 32.4567 14.2588H32.4552H37.6002C38.2994 14.2588 38.553 14.6399 38.553 15.4651V21.9771C38.553 22.6748 38.8711 22.9299 39.0617 22.9299C39.4743 22.9299 39.8254 22.6748 40.5861 21.9141C42.1676 19.983 43.5195 17.7743 44.5503 15.3931L44.6193 15.2131C44.8369 14.6684 45.3591 14.2903 45.9697 14.2903C45.9983 14.2903 46.0253 14.2918 46.0538 14.2933H46.0493H49.3187C50.303 14.2933 50.5266 14.7989 50.303 15.4996C48.9917 18.388 47.5182 20.8698 45.8107 23.1685L45.8887 23.0574C45.5406 23.6291 45.4131 23.8827 45.8887 24.5204C46.2368 24.996 47.3817 25.9803 48.1439 26.8701C49.2467 27.9609 50.171 29.2303 50.8687 30.6317L50.9062 30.7142C51.2243 31.6325 50.7472 32.1096 49.8259 32.1096L49.8289 32.1066ZM42.9073 0H29.0927C16.4844 0 13.5 2.9844 13.5 15.5927V29.4073C13.5 42.0156 16.4844 45 29.0927 45H42.9073C55.5156 45 58.5 42.0156 58.5 29.4073V15.5927C58.5 2.9844 55.4826 0 42.9073 0Z" fill="#DCB45E"/>
</svg>
