<svg width="126" height="66" viewBox="0 0 126 66" fill="none" xmlns="http://www.w3.org/2000/svg">
<path d="M105.476 35.3777C108.35 41.1902 102.458 47.4479 96.4832 44.9303L82.8374 39.1808C78.3397 37.2858 77.1132 31.4854 80.4587 27.9318L87.5429 20.4069C90.8884 16.8533 96.7522 17.728 98.9149 22.1033L105.476 35.3777Z" fill="#DCB45E"/>
<path d="M96.6773 44.4696L83.0316 38.7201C78.8551 36.9604 77.7162 31.5743 80.8227 28.2745L87.9069 20.7496C91.0135 17.4499 96.4584 18.2621 98.4666 22.3249L105.028 35.5993C107.696 40.9966 102.226 46.8073 96.6773 44.4696Z" stroke="#3F2C03" stroke-opacity="0.5"/>
<path d="M20.3952 34.3777C17.5221 40.1902 23.4133 46.4479 29.3884 43.9303L43.0341 38.1808C47.5318 36.2858 48.7584 30.4854 45.4129 26.9318L38.3287 19.4069C34.9832 15.8533 29.1194 16.728 26.9567 21.1033L20.3952 34.3777Z" fill="#DCB45E"/>
<path d="M29.1943 43.4696L42.84 37.7201C47.0164 35.9604 48.1554 30.5743 45.0489 27.2745L37.9646 19.7496C34.8581 16.4499 29.4132 17.2621 27.4049 21.3249L20.8434 34.5993C18.1755 39.9966 23.6459 45.8073 29.1943 43.4696Z" stroke="#3F2C03" stroke-opacity="0.5"/>
<path d="M72.0522 12.4065C72.6795 8.40067 76.5682 5.76397 80.5216 6.66389L87.3535 8.219C91.3069 9.11892 93.6713 13.179 92.5029 17.0616L85.8594 39.1377C84.799 42.6616 81.191 44.7627 77.6027 43.9459L73.8481 43.0913C70.2599 42.2745 67.9167 38.8188 68.486 35.183L72.0522 12.4065Z" fill="#DCB45E"/>
<path d="M80.4107 7.15142L87.2425 8.70653C90.9136 9.54217 93.109 13.3122 92.0241 16.9175L85.3806 38.9936C84.3959 42.2658 81.0456 44.2168 77.7137 43.4584L73.9591 42.6037C70.6271 41.8453 68.4514 38.6364 68.98 35.2604L72.5462 12.4838C73.1286 8.76415 76.7396 6.31578 80.4107 7.15142Z" stroke="#3F2C03" stroke-opacity="0.5"/>
<path d="M53.8188 11.4065C53.1916 7.40067 49.3029 4.76397 45.3495 5.66389L38.5176 7.219C34.5641 8.11892 32.1998 12.179 33.3682 16.0616L40.0117 38.1377C41.0721 41.6616 44.6801 43.7627 48.2684 42.9459L52.023 42.0913C55.6112 41.2745 57.9544 37.8188 57.3851 34.183L53.8188 11.4065Z" fill="#DCB45E"/>
<path d="M45.4604 6.15142L38.6286 7.70653C34.9575 8.54217 32.7621 12.3122 33.847 15.9175L40.4904 37.9936C41.4752 41.2658 44.8254 43.2168 48.1574 42.4584L51.912 41.6037C55.244 40.8453 57.4197 37.6364 56.8911 34.2604L53.3249 11.4838C52.7425 7.76415 49.1315 5.31578 45.4604 6.15142Z" stroke="#3F2C03" stroke-opacity="0.5"/>
<path d="M50.5224 7.48719C50.2399 3.43922 53.4476 0 57.5054 0H68.4946C72.5524 0 75.7601 3.43922 75.4776 7.48719L73.4544 36.4872C73.1985 40.1552 70.1483 43 66.4714 43H59.5286C55.8517 43 52.8015 40.1552 52.5456 36.4872L50.5224 7.48719Z" fill="#DCB45E"/>
<path d="M57.5054 0.5H68.4946C72.2626 0.5 75.2411 3.69356 74.9789 7.45239L72.9556 36.4524C72.718 39.8584 69.8856 42.5 66.4714 42.5H59.5286C56.1144 42.5 53.282 39.8584 53.0444 36.4524L51.0211 7.45239C50.7589 3.69356 53.7374 0.5 57.5054 0.5Z" stroke="#3F2C03" stroke-opacity="0.5"/>
<path d="M24.081 54.867C23.6997 54.737 23.353 54.607 23.041 54.477C22.729 54.3383 22.4603 54.1737 22.235 53.983C22.0097 53.7923 21.832 53.567 21.702 53.307C21.5807 53.0383 21.52 52.7133 21.52 52.332C21.52 51.5953 21.8017 51.006 22.365 50.564C22.937 50.122 23.7343 49.901 24.757 49.901C25.1297 49.901 25.4763 49.927 25.797 49.979C26.1177 50.031 26.3907 50.1133 26.616 50.226C26.85 50.33 27.032 50.4687 27.162 50.642C27.292 50.8067 27.357 51.0017 27.357 51.227C27.357 51.4523 27.305 51.6473 27.201 51.812C27.097 51.968 26.9713 52.1023 26.824 52.215C26.6333 52.0937 26.3777 51.9897 26.057 51.903C25.7363 51.8077 25.3853 51.76 25.004 51.76C24.614 51.76 24.328 51.8163 24.146 51.929C23.964 52.033 23.873 52.1673 23.873 52.332C23.873 52.462 23.9293 52.5703 24.042 52.657C24.1547 52.735 24.3237 52.8087 24.549 52.878L25.238 53.099C26.0527 53.359 26.6767 53.6927 27.11 54.1C27.552 54.4987 27.773 55.0447 27.773 55.738C27.773 56.4747 27.4827 57.0727 26.902 57.532C26.3213 57.9827 25.4677 58.208 24.341 58.208C23.9423 58.208 23.5697 58.1733 23.223 58.104C22.885 58.0433 22.586 57.9523 22.326 57.831C22.0747 57.701 21.8753 57.545 21.728 57.363C21.5893 57.1723 21.52 56.9557 21.52 56.713C21.52 56.4617 21.5937 56.2493 21.741 56.076C21.8883 55.894 22.0487 55.7553 22.222 55.66C22.4647 55.8507 22.7593 56.0153 23.106 56.154C23.4613 56.2927 23.847 56.362 24.263 56.362C24.6877 56.362 24.9867 56.297 25.16 56.167C25.3333 56.037 25.42 55.8853 25.42 55.712C25.42 55.5387 25.3507 55.4087 25.212 55.322C25.0733 55.2267 24.8783 55.1357 24.627 55.049L24.081 54.867ZM32.3102 57.805C32.1889 57.909 32.0242 57.9913 31.8162 58.052C31.6082 58.1213 31.3612 58.156 31.0752 58.156C30.7199 58.156 30.4122 58.104 30.1522 58C29.8922 57.9047 29.7189 57.766 29.6322 57.584C29.5369 57.376 29.4242 57.0467 29.2942 56.596C29.1729 56.1453 29.0515 55.6513 28.9302 55.114C28.8089 54.5767 28.6919 54.0307 28.5792 53.476C28.4752 52.9213 28.3929 52.4317 28.3322 52.007C28.4535 51.8857 28.6139 51.7817 28.8132 51.695C29.0212 51.5997 29.2465 51.552 29.4892 51.552C29.7925 51.552 30.0395 51.6213 30.2302 51.76C30.4295 51.89 30.5509 52.1197 30.5942 52.449C30.6809 53.1077 30.7545 53.6537 30.8152 54.087C30.8759 54.5117 30.9235 54.8627 30.9582 55.14C31.0015 55.4087 31.0319 55.6167 31.0492 55.764C31.0752 55.9027 31.0969 56.0153 31.1142 56.102H31.1662C31.1922 55.9633 31.2355 55.764 31.2962 55.504C31.3655 55.2353 31.4435 54.932 31.5302 54.594C31.6169 54.256 31.7079 53.892 31.8032 53.502C31.8985 53.1033 31.9939 52.709 32.0892 52.319C32.2625 52.2237 32.4315 52.15 32.5962 52.098C32.7695 52.046 32.9819 52.02 33.2332 52.02C33.5365 52.02 33.7965 52.0677 34.0132 52.163C34.2299 52.2583 34.3685 52.4057 34.4292 52.605C34.5332 52.9863 34.6329 53.359 34.7282 53.723C34.8235 54.0783 34.9102 54.412 34.9882 54.724C35.0662 55.0273 35.1355 55.3003 35.1962 55.543C35.2569 55.777 35.3002 55.9633 35.3262 56.102H35.3912C35.4865 55.4347 35.5775 54.7413 35.6642 54.022C35.7595 53.3027 35.8462 52.5703 35.9242 51.825C36.0802 51.7297 36.2449 51.6603 36.4182 51.617C36.5915 51.5737 36.7649 51.552 36.9382 51.552C37.2415 51.552 37.4929 51.617 37.6922 51.747C37.8915 51.877 37.9912 52.1023 37.9912 52.423C37.9912 52.5617 37.9695 52.7697 37.9262 53.047C37.8829 53.3243 37.8265 53.6363 37.7572 53.983C37.6879 54.3297 37.6055 54.6937 37.5102 55.075C37.4235 55.4563 37.3325 55.8247 37.2372 56.18C37.1505 56.5353 37.0639 56.856 36.9772 57.142C36.8992 57.428 36.8299 57.649 36.7692 57.805C36.6479 57.909 36.4615 57.9913 36.2102 58.052C35.9589 58.1213 35.6902 58.156 35.4042 58.156C34.6762 58.156 34.2472 57.974 34.1172 57.61C34.0652 57.454 34.0002 57.259 33.9222 57.025C33.8442 56.7823 33.7619 56.518 33.6752 56.232C33.5885 55.946 33.5062 55.6513 33.4282 55.348C33.3502 55.036 33.2852 54.737 33.2332 54.451C33.1725 54.7543 33.0989 55.0707 33.0122 55.4C32.9255 55.7207 32.8345 56.037 32.7392 56.349C32.6525 56.6523 32.5702 56.934 32.4922 57.194C32.4142 57.4453 32.3535 57.649 32.3102 57.805ZM42.3334 58.208C41.8221 58.208 41.3454 58.1387 40.9034 58C40.4701 57.8527 40.0887 57.636 39.7594 57.35C39.4387 57.064 39.1831 56.7043 38.9924 56.271C38.8104 55.8377 38.7194 55.3307 38.7194 54.75C38.7194 54.178 38.8104 53.6883 38.9924 53.281C39.1831 52.865 39.4301 52.527 39.7334 52.267C40.0367 51.9983 40.3834 51.8033 40.7734 51.682C41.1634 51.552 41.5621 51.487 41.9694 51.487C42.4287 51.487 42.8447 51.5563 43.2174 51.695C43.5987 51.8337 43.9237 52.0243 44.1924 52.267C44.4697 52.5097 44.6821 52.8 44.8294 53.138C44.9854 53.476 45.0634 53.8443 45.0634 54.243C45.0634 54.5377 44.9811 54.763 44.8164 54.919C44.6517 55.075 44.4221 55.1747 44.1274 55.218L40.9164 55.699C41.0117 55.985 41.2067 56.2017 41.5014 56.349C41.7961 56.4877 42.1341 56.557 42.5154 56.557C42.8707 56.557 43.2044 56.5137 43.5164 56.427C43.8371 56.3317 44.0971 56.2233 44.2964 56.102C44.4351 56.1887 44.5521 56.31 44.6474 56.466C44.7427 56.622 44.7904 56.7867 44.7904 56.96C44.7904 57.35 44.6084 57.6403 44.2444 57.831C43.9671 57.9783 43.6551 58.078 43.3084 58.13C42.9617 58.182 42.6367 58.208 42.3334 58.208ZM41.9694 53.099C41.7614 53.099 41.5794 53.1337 41.4234 53.203C41.2761 53.2723 41.1547 53.3633 41.0594 53.476C40.9641 53.58 40.8904 53.7013 40.8384 53.84C40.7951 53.97 40.7691 54.1043 40.7604 54.243L42.9834 53.879C42.9574 53.7057 42.8621 53.5323 42.6974 53.359C42.5327 53.1857 42.2901 53.099 41.9694 53.099ZM49.4682 58.208C48.9568 58.208 48.4802 58.1387 48.0382 58C47.6048 57.8527 47.2235 57.636 46.8942 57.35C46.5735 57.064 46.3178 56.7043 46.1272 56.271C45.9452 55.8377 45.8542 55.3307 45.8542 54.75C45.8542 54.178 45.9452 53.6883 46.1272 53.281C46.3178 52.865 46.5648 52.527 46.8682 52.267C47.1715 51.9983 47.5182 51.8033 47.9082 51.682C48.2982 51.552 48.6968 51.487 49.1042 51.487C49.5635 51.487 49.9795 51.5563 50.3522 51.695C50.7335 51.8337 51.0585 52.0243 51.3272 52.267C51.6045 52.5097 51.8168 52.8 51.9642 53.138C52.1202 53.476 52.1982 53.8443 52.1982 54.243C52.1982 54.5377 52.1158 54.763 51.9512 54.919C51.7865 55.075 51.5568 55.1747 51.2622 55.218L48.0512 55.699C48.1465 55.985 48.3415 56.2017 48.6362 56.349C48.9308 56.4877 49.2688 56.557 49.6502 56.557C50.0055 56.557 50.3392 56.5137 50.6512 56.427C50.9718 56.3317 51.2318 56.2233 51.4312 56.102C51.5698 56.1887 51.6868 56.31 51.7822 56.466C51.8775 56.622 51.9252 56.7867 51.9252 56.96C51.9252 57.35 51.7432 57.6403 51.3792 57.831C51.1018 57.9783 50.7898 58.078 50.4432 58.13C50.0965 58.182 49.7715 58.208 49.4682 58.208ZM49.1042 53.099C48.8962 53.099 48.7142 53.1337 48.5582 53.203C48.4108 53.2723 48.2895 53.3633 48.1942 53.476C48.0988 53.58 48.0252 53.7013 47.9732 53.84C47.9298 53.97 47.9038 54.1043 47.8952 54.243L50.1182 53.879C50.0922 53.7057 49.9968 53.5323 49.8322 53.359C49.6675 53.1857 49.4248 53.099 49.1042 53.099ZM55.4719 55.829C55.4719 56.0543 55.5413 56.2147 55.6799 56.31C55.8273 56.4053 56.0309 56.453 56.2909 56.453C56.4209 56.453 56.5553 56.4443 56.6939 56.427C56.8326 56.401 56.9539 56.3707 57.0579 56.336C57.1359 56.4313 57.2009 56.5397 57.2529 56.661C57.3136 56.7737 57.3439 56.9123 57.3439 57.077C57.3439 57.4063 57.2183 57.675 56.9669 57.883C56.7243 58.091 56.2909 58.195 55.6669 58.195C54.9043 58.195 54.3149 58.0217 53.8989 57.675C53.4916 57.3283 53.2879 56.765 53.2879 55.985V50.421C53.3833 50.395 53.5176 50.369 53.6909 50.343C53.8729 50.3083 54.0636 50.291 54.2629 50.291C54.6443 50.291 54.9389 50.3603 55.1469 50.499C55.3636 50.629 55.4719 50.9107 55.4719 51.344V52.176H57.1749C57.2269 52.2713 57.2746 52.3927 57.3179 52.54C57.3699 52.6787 57.3959 52.8347 57.3959 53.008C57.3959 53.3113 57.3266 53.5323 57.1879 53.671C57.0579 53.801 56.8803 53.866 56.6549 53.866H55.4719V55.829ZM60.7966 54.841C60.7966 54.269 60.8832 53.775 61.0566 53.359C61.2299 52.9343 61.4682 52.5833 61.7716 52.306C62.0836 52.0287 62.4432 51.825 62.8506 51.695C63.2666 51.5563 63.7129 51.487 64.1896 51.487C64.3629 51.487 64.5319 51.5043 64.6966 51.539C64.8612 51.565 64.9956 51.5997 65.0996 51.643V49.537C65.1862 49.511 65.3249 49.485 65.5156 49.459C65.7062 49.4243 65.9012 49.407 66.1006 49.407C66.2912 49.407 66.4602 49.42 66.6076 49.446C66.7636 49.472 66.8936 49.524 66.9976 49.602C67.1016 49.68 67.1796 49.7883 67.2316 49.927C67.2836 50.057 67.3096 50.2303 67.3096 50.447V56.609C67.3096 57.0163 67.1189 57.3413 66.7376 57.584C66.4862 57.7487 66.1612 57.8917 65.7626 58.013C65.3639 58.143 64.9046 58.208 64.3846 58.208C63.8212 58.208 63.3142 58.13 62.8636 57.974C62.4216 57.818 62.0446 57.5927 61.7326 57.298C61.4292 57.0033 61.1952 56.6523 61.0306 56.245C60.8746 55.829 60.7966 55.361 60.7966 54.841ZM64.4886 53.216C64.0206 53.216 63.6609 53.3503 63.4096 53.619C63.1582 53.8877 63.0326 54.295 63.0326 54.841C63.0326 55.3783 63.1496 55.7857 63.3836 56.063C63.6176 56.3317 63.9556 56.466 64.3976 56.466C64.5536 56.466 64.6922 56.4443 64.8136 56.401C64.9436 56.349 65.0432 56.2927 65.1126 56.232V53.372C64.9392 53.268 64.7312 53.216 64.4886 53.216ZM70.8967 57.987C70.8101 58.013 70.6714 58.039 70.4807 58.065C70.2987 58.091 70.1081 58.104 69.9087 58.104C69.7181 58.104 69.5447 58.091 69.3887 58.065C69.2414 58.039 69.1157 57.987 69.0117 57.909C68.9077 57.831 68.8254 57.727 68.7647 57.597C68.7127 57.4583 68.6867 57.2807 68.6867 57.064V53.164C68.6867 52.9647 68.7214 52.7957 68.7907 52.657C68.8687 52.5097 68.9771 52.3797 69.1157 52.267C69.2544 52.1543 69.4234 52.0547 69.6227 51.968C69.8307 51.8727 70.0517 51.7903 70.2857 51.721C70.5197 51.6517 70.7624 51.5997 71.0137 51.565C71.2651 51.5217 71.5164 51.5 71.7677 51.5C72.1837 51.5 72.5131 51.5823 72.7557 51.747C72.9984 51.903 73.1197 52.163 73.1197 52.527C73.1197 52.6483 73.1024 52.7697 73.0677 52.891C73.0331 53.0037 72.9897 53.1077 72.9377 53.203C72.7557 53.203 72.5694 53.2117 72.3787 53.229C72.1881 53.2463 72.0017 53.2723 71.8197 53.307C71.6377 53.3417 71.4644 53.3807 71.2997 53.424C71.1437 53.4587 71.0094 53.502 70.8967 53.554V57.987ZM77.1313 58.208C76.6199 58.208 76.1433 58.1387 75.7013 58C75.2679 57.8527 74.8866 57.636 74.5573 57.35C74.2366 57.064 73.9809 56.7043 73.7903 56.271C73.6083 55.8377 73.5173 55.3307 73.5173 54.75C73.5173 54.178 73.6083 53.6883 73.7903 53.281C73.9809 52.865 74.2279 52.527 74.5313 52.267C74.8346 51.9983 75.1813 51.8033 75.5713 51.682C75.9613 51.552 76.3599 51.487 76.7673 51.487C77.2266 51.487 77.6426 51.5563 78.0153 51.695C78.3966 51.8337 78.7216 52.0243 78.9903 52.267C79.2676 52.5097 79.4799 52.8 79.6273 53.138C79.7833 53.476 79.8613 53.8443 79.8613 54.243C79.8613 54.5377 79.7789 54.763 79.6143 54.919C79.4496 55.075 79.2199 55.1747 78.9253 55.218L75.7143 55.699C75.8096 55.985 76.0046 56.2017 76.2993 56.349C76.5939 56.4877 76.9319 56.557 77.3133 56.557C77.6686 56.557 78.0023 56.5137 78.3143 56.427C78.6349 56.3317 78.8949 56.2233 79.0943 56.102C79.2329 56.1887 79.3499 56.31 79.4453 56.466C79.5406 56.622 79.5883 56.7867 79.5883 56.96C79.5883 57.35 79.4063 57.6403 79.0423 57.831C78.7649 57.9783 78.4529 58.078 78.1063 58.13C77.7596 58.182 77.4346 58.208 77.1313 58.208ZM76.7673 53.099C76.5593 53.099 76.3773 53.1337 76.2213 53.203C76.0739 53.2723 75.9526 53.3633 75.8573 53.476C75.7619 53.58 75.6883 53.7013 75.6363 53.84C75.5929 53.97 75.5669 54.1043 75.5583 54.243L77.7813 53.879C77.7553 53.7057 77.6599 53.5323 77.4953 53.359C77.3306 53.1857 77.0879 53.099 76.7673 53.099ZM83.629 56.596C83.7764 56.596 83.9367 56.583 84.11 56.557C84.292 56.5223 84.4264 56.479 84.513 56.427V55.387L83.577 55.465C83.3344 55.4823 83.135 55.5343 82.979 55.621C82.823 55.7077 82.745 55.8377 82.745 56.011C82.745 56.1843 82.81 56.3273 82.94 56.44C83.0787 56.544 83.3084 56.596 83.629 56.596ZM83.525 51.487C83.993 51.487 84.4177 51.5347 84.799 51.63C85.189 51.7253 85.5184 51.8727 85.787 52.072C86.0644 52.2627 86.2767 52.5097 86.424 52.813C86.5714 53.1077 86.645 53.4587 86.645 53.866V56.778C86.645 57.0033 86.58 57.1897 86.45 57.337C86.3287 57.4757 86.1814 57.597 86.008 57.701C85.4447 58.039 84.6517 58.208 83.629 58.208C83.1697 58.208 82.7537 58.1647 82.381 58.078C82.017 57.9913 81.7007 57.8613 81.432 57.688C81.172 57.5147 80.9684 57.2937 80.821 57.025C80.6824 56.7563 80.613 56.4443 80.613 56.089C80.613 55.491 80.7907 55.0317 81.146 54.711C81.5014 54.3903 82.0517 54.191 82.797 54.113L84.5 53.931V53.84C84.5 53.5887 84.3874 53.411 84.162 53.307C83.9454 53.1943 83.629 53.138 83.213 53.138C82.8837 53.138 82.563 53.1727 82.251 53.242C81.939 53.3113 81.6574 53.398 81.406 53.502C81.2934 53.424 81.198 53.307 81.12 53.151C81.042 52.9863 81.003 52.8173 81.003 52.644C81.003 52.4187 81.055 52.241 81.159 52.111C81.2717 51.9723 81.4407 51.8553 81.666 51.76C81.9174 51.6647 82.212 51.5953 82.55 51.552C82.8967 51.5087 83.2217 51.487 83.525 51.487ZM91.0253 51.487C91.3806 51.487 91.7273 51.539 92.0653 51.643C92.412 51.7383 92.711 51.8857 92.9623 52.085C93.2223 51.9117 93.5126 51.7687 93.8333 51.656C94.1626 51.5433 94.557 51.487 95.0163 51.487C95.3456 51.487 95.6663 51.5303 95.9783 51.617C96.299 51.7037 96.5806 51.8423 96.8233 52.033C97.0746 52.215 97.274 52.462 97.4213 52.774C97.5686 53.0773 97.6423 53.45 97.6423 53.892V57.987C97.5556 58.013 97.417 58.039 97.2263 58.065C97.0443 58.091 96.8536 58.104 96.6543 58.104C96.4636 58.104 96.2903 58.091 96.1343 58.065C95.987 58.039 95.8613 57.987 95.7573 57.909C95.6533 57.831 95.571 57.727 95.5103 57.597C95.4583 57.4583 95.4323 57.2807 95.4323 57.064V53.957C95.4323 53.697 95.3586 53.5107 95.2113 53.398C95.064 53.2767 94.8646 53.216 94.6133 53.216C94.492 53.216 94.362 53.2463 94.2233 53.307C94.0846 53.359 93.9806 53.4153 93.9113 53.476C93.92 53.5107 93.9243 53.5453 93.9243 53.58C93.9243 53.606 93.9243 53.632 93.9243 53.658V57.987C93.829 58.013 93.686 58.039 93.4953 58.065C93.3133 58.091 93.127 58.104 92.9363 58.104C92.7456 58.104 92.5723 58.091 92.4163 58.065C92.269 58.039 92.1433 57.987 92.0393 57.909C91.9353 57.831 91.853 57.727 91.7923 57.597C91.7403 57.4583 91.7143 57.2807 91.7143 57.064V53.957C91.7143 53.697 91.632 53.5107 91.4673 53.398C91.3113 53.2767 91.1206 53.216 90.8953 53.216C90.7393 53.216 90.605 53.242 90.4923 53.294C90.3796 53.3373 90.2843 53.3807 90.2063 53.424V57.987C90.1196 58.013 89.981 58.039 89.7903 58.065C89.6083 58.091 89.4176 58.104 89.2183 58.104C89.0276 58.104 88.8543 58.091 88.6983 58.065C88.551 58.039 88.4253 57.987 88.3213 57.909C88.2173 57.831 88.135 57.727 88.0743 57.597C88.0223 57.4583 87.9963 57.2807 87.9963 57.064V53.138C87.9963 52.904 88.044 52.7177 88.1393 52.579C88.2433 52.4403 88.382 52.3103 88.5553 52.189C88.85 51.981 89.214 51.812 89.6473 51.682C90.0893 51.552 90.5486 51.487 91.0253 51.487ZM104.32 56.115C104.32 56.7737 104.073 57.2893 103.579 57.662C103.085 58.0347 102.357 58.221 101.395 58.221C101.031 58.221 100.693 58.195 100.381 58.143C100.069 58.091 99.8008 58.013 99.5755 57.909C99.3588 57.7963 99.1855 57.6577 99.0555 57.493C98.9341 57.3283 98.8735 57.1333 98.8735 56.908C98.8735 56.7 98.9168 56.5267 99.0035 56.388C99.0901 56.2407 99.1941 56.1193 99.3155 56.024C99.5668 56.1627 99.8528 56.2883 100.173 56.401C100.503 56.505 100.88 56.557 101.304 56.557C101.573 56.557 101.777 56.518 101.915 56.44C102.063 56.362 102.136 56.258 102.136 56.128C102.136 56.0067 102.084 55.9113 101.98 55.842C101.876 55.7727 101.703 55.7163 101.46 55.673L101.07 55.595C100.316 55.4477 99.7531 55.218 99.3805 54.906C99.0165 54.5853 98.8345 54.1303 98.8345 53.541C98.8345 53.2203 98.9038 52.93 99.0425 52.67C99.1811 52.41 99.3761 52.1933 99.6275 52.02C99.8788 51.8467 100.178 51.7123 100.524 51.617C100.88 51.5217 101.27 51.474 101.694 51.474C102.015 51.474 102.314 51.5 102.591 51.552C102.877 51.5953 103.124 51.6647 103.332 51.76C103.54 51.8553 103.705 51.981 103.826 52.137C103.948 52.2843 104.008 52.462 104.008 52.67C104.008 52.8693 103.969 53.0427 103.891 53.19C103.822 53.3287 103.731 53.4457 103.618 53.541C103.549 53.4977 103.445 53.4543 103.306 53.411C103.168 53.359 103.016 53.3157 102.851 53.281C102.687 53.2377 102.518 53.203 102.344 53.177C102.18 53.151 102.028 53.138 101.889 53.138C101.603 53.138 101.382 53.1727 101.226 53.242C101.07 53.3027 100.992 53.4023 100.992 53.541C100.992 53.6363 101.036 53.7143 101.122 53.775C101.209 53.8357 101.374 53.892 101.616 53.944L102.019 54.035C102.851 54.2257 103.441 54.49 103.787 54.828C104.143 55.1573 104.32 55.5863 104.32 56.115Z" fill="#F2E0BA"/>
</svg>
