<svg width="126" height="66" viewBox="0 0 126 66" fill="none" xmlns="http://www.w3.org/2000/svg">
<path d="M105.476 35.3777C108.35 41.1902 102.458 47.4479 96.4832 44.9303L82.8374 39.1808C78.3397 37.2858 77.1132 31.4854 80.4587 27.9318L87.5429 20.4069C90.8884 16.8533 96.7522 17.728 98.9149 22.1033L105.476 35.3777Z" fill="#DCB45E"/>
<path d="M96.6773 44.4696L83.0316 38.7201C78.8551 36.9604 77.7162 31.5743 80.8227 28.2745L87.9069 20.7496C91.0135 17.4499 96.4584 18.2621 98.4666 22.3249L105.028 35.5993C107.696 40.9966 102.226 46.8073 96.6773 44.4696Z" stroke="#3F2C03" stroke-opacity="0.5"/>
<path d="M20.3952 34.3777C17.5221 40.1902 23.4133 46.4479 29.3884 43.9303L43.0341 38.1808C47.5318 36.2858 48.7584 30.4854 45.4129 26.9318L38.3287 19.4069C34.9832 15.8533 29.1194 16.728 26.9567 21.1033L20.3952 34.3777Z" fill="#DCB45E"/>
<path d="M29.1943 43.4696L42.84 37.7201C47.0164 35.9604 48.1554 30.5743 45.0489 27.2745L37.9646 19.7496C34.8581 16.4499 29.4132 17.2621 27.4049 21.3249L20.8434 34.5993C18.1755 39.9966 23.6459 45.8073 29.1943 43.4696Z" stroke="#3F2C03" stroke-opacity="0.5"/>
<path d="M72.0522 12.4065C72.6795 8.40067 76.5682 5.76397 80.5216 6.66389L87.3535 8.219C91.3069 9.11892 93.6713 13.179 92.5029 17.0616L85.8594 39.1377C84.799 42.6616 81.191 44.7627 77.6027 43.9459L73.8481 43.0913C70.2599 42.2745 67.9167 38.8188 68.486 35.183L72.0522 12.4065Z" fill="#DCB45E"/>
<path d="M80.4107 7.15142L87.2425 8.70653C90.9136 9.54217 93.109 13.3122 92.0241 16.9175L85.3806 38.9936C84.3959 42.2658 81.0456 44.2168 77.7137 43.4584L73.9591 42.6037C70.6271 41.8453 68.4514 38.6364 68.98 35.2604L72.5462 12.4838C73.1286 8.76415 76.7396 6.31578 80.4107 7.15142Z" stroke="#3F2C03" stroke-opacity="0.5"/>
<path d="M53.8188 11.4065C53.1916 7.40067 49.3029 4.76397 45.3495 5.66389L38.5176 7.219C34.5641 8.11892 32.1998 12.179 33.3682 16.0616L40.0117 38.1377C41.0721 41.6616 44.6801 43.7627 48.2684 42.9459L52.023 42.0913C55.6112 41.2745 57.9544 37.8188 57.3851 34.183L53.8188 11.4065Z" fill="#DCB45E"/>
<path d="M45.4604 6.15142L38.6286 7.70653C34.9575 8.54217 32.7621 12.3122 33.847 15.9175L40.4904 37.9936C41.4752 41.2658 44.8254 43.2168 48.1574 42.4584L51.912 41.6037C55.244 40.8453 57.4197 37.6364 56.8911 34.2604L53.3249 11.4838C52.7425 7.76415 49.1315 5.31578 45.4604 6.15142Z" stroke="#3F2C03" stroke-opacity="0.5"/>
<path d="M50.5224 7.48719C50.2399 3.43922 53.4476 0 57.5054 0H68.4946C72.5524 0 75.7601 3.43922 75.4776 7.48719L73.4544 36.4872C73.1985 40.1552 70.1483 43 66.4714 43H59.5286C55.8517 43 52.8015 40.1552 52.5456 36.4872L50.5224 7.48719Z" fill="#DCB45E"/>
<path d="M57.5054 0.5H68.4946C72.2626 0.5 75.2411 3.69356 74.9789 7.45239L72.9556 36.4524C72.718 39.8584 69.8856 42.5 66.4714 42.5H59.5286C56.1144 42.5 53.282 39.8584 53.0444 36.4524L51.0211 7.45239C50.7589 3.69356 53.7374 0.5 57.5054 0.5Z" stroke="#3F2C03" stroke-opacity="0.5"/>
<path d="M24.081 52.867C23.6997 52.737 23.353 52.607 23.041 52.477C22.729 52.3383 22.4603 52.1737 22.235 51.983C22.0097 51.7923 21.832 51.567 21.702 51.307C21.5807 51.0383 21.52 50.7133 21.52 50.332C21.52 49.5953 21.8017 49.006 22.365 48.564C22.937 48.122 23.7343 47.901 24.757 47.901C25.1297 47.901 25.4763 47.927 25.797 47.979C26.1177 48.031 26.3907 48.1133 26.616 48.226C26.85 48.33 27.032 48.4687 27.162 48.642C27.292 48.8067 27.357 49.0017 27.357 49.227C27.357 49.4523 27.305 49.6473 27.201 49.812C27.097 49.968 26.9713 50.1023 26.824 50.215C26.6333 50.0937 26.3777 49.9897 26.057 49.903C25.7363 49.8077 25.3853 49.76 25.004 49.76C24.614 49.76 24.328 49.8163 24.146 49.929C23.964 50.033 23.873 50.1673 23.873 50.332C23.873 50.462 23.9293 50.5703 24.042 50.657C24.1547 50.735 24.3237 50.8087 24.549 50.878L25.238 51.099C26.0527 51.359 26.6767 51.6927 27.11 52.1C27.552 52.4987 27.773 53.0447 27.773 53.738C27.773 54.4747 27.4827 55.0727 26.902 55.532C26.3213 55.9827 25.4677 56.208 24.341 56.208C23.9423 56.208 23.5697 56.1733 23.223 56.104C22.885 56.0433 22.586 55.9523 22.326 55.831C22.0747 55.701 21.8753 55.545 21.728 55.363C21.5893 55.1723 21.52 54.9557 21.52 54.713C21.52 54.4617 21.5937 54.2493 21.741 54.076C21.8883 53.894 22.0487 53.7553 22.222 53.66C22.4647 53.8507 22.7593 54.0153 23.106 54.154C23.4613 54.2927 23.847 54.362 24.263 54.362C24.6877 54.362 24.9867 54.297 25.16 54.167C25.3333 54.037 25.42 53.8853 25.42 53.712C25.42 53.5387 25.3507 53.4087 25.212 53.322C25.0733 53.2267 24.8783 53.1357 24.627 53.049L24.081 52.867ZM32.3102 55.805C32.1889 55.909 32.0242 55.9913 31.8162 56.052C31.6082 56.1213 31.3612 56.156 31.0752 56.156C30.7199 56.156 30.4122 56.104 30.1522 56C29.8922 55.9047 29.7189 55.766 29.6322 55.584C29.5369 55.376 29.4242 55.0467 29.2942 54.596C29.1729 54.1453 29.0515 53.6513 28.9302 53.114C28.8089 52.5767 28.6919 52.0307 28.5792 51.476C28.4752 50.9213 28.3929 50.4317 28.3322 50.007C28.4535 49.8857 28.6139 49.7817 28.8132 49.695C29.0212 49.5997 29.2465 49.552 29.4892 49.552C29.7925 49.552 30.0395 49.6213 30.2302 49.76C30.4295 49.89 30.5509 50.1197 30.5942 50.449C30.6809 51.1077 30.7545 51.6537 30.8152 52.087C30.8759 52.5117 30.9235 52.8627 30.9582 53.14C31.0015 53.4087 31.0319 53.6167 31.0492 53.764C31.0752 53.9027 31.0969 54.0153 31.1142 54.102H31.1662C31.1922 53.9633 31.2355 53.764 31.2962 53.504C31.3655 53.2353 31.4435 52.932 31.5302 52.594C31.6169 52.256 31.7079 51.892 31.8032 51.502C31.8985 51.1033 31.9939 50.709 32.0892 50.319C32.2625 50.2237 32.4315 50.15 32.5962 50.098C32.7695 50.046 32.9819 50.02 33.2332 50.02C33.5365 50.02 33.7965 50.0677 34.0132 50.163C34.2299 50.2583 34.3685 50.4057 34.4292 50.605C34.5332 50.9863 34.6329 51.359 34.7282 51.723C34.8235 52.0783 34.9102 52.412 34.9882 52.724C35.0662 53.0273 35.1355 53.3003 35.1962 53.543C35.2569 53.777 35.3002 53.9633 35.3262 54.102H35.3912C35.4865 53.4347 35.5775 52.7413 35.6642 52.022C35.7595 51.3027 35.8462 50.5703 35.9242 49.825C36.0802 49.7297 36.2449 49.6603 36.4182 49.617C36.5915 49.5737 36.7649 49.552 36.9382 49.552C37.2415 49.552 37.4929 49.617 37.6922 49.747C37.8915 49.877 37.9912 50.1023 37.9912 50.423C37.9912 50.5617 37.9695 50.7697 37.9262 51.047C37.8829 51.3243 37.8265 51.6363 37.7572 51.983C37.6879 52.3297 37.6055 52.6937 37.5102 53.075C37.4235 53.4563 37.3325 53.8247 37.2372 54.18C37.1505 54.5353 37.0639 54.856 36.9772 55.142C36.8992 55.428 36.8299 55.649 36.7692 55.805C36.6479 55.909 36.4615 55.9913 36.2102 56.052C35.9589 56.1213 35.6902 56.156 35.4042 56.156C34.6762 56.156 34.2472 55.974 34.1172 55.61C34.0652 55.454 34.0002 55.259 33.9222 55.025C33.8442 54.7823 33.7619 54.518 33.6752 54.232C33.5885 53.946 33.5062 53.6513 33.4282 53.348C33.3502 53.036 33.2852 52.737 33.2332 52.451C33.1725 52.7543 33.0989 53.0707 33.0122 53.4C32.9255 53.7207 32.8345 54.037 32.7392 54.349C32.6525 54.6523 32.5702 54.934 32.4922 55.194C32.4142 55.4453 32.3535 55.649 32.3102 55.805ZM42.3334 56.208C41.8221 56.208 41.3454 56.1387 40.9034 56C40.4701 55.8527 40.0887 55.636 39.7594 55.35C39.4387 55.064 39.1831 54.7043 38.9924 54.271C38.8104 53.8377 38.7194 53.3307 38.7194 52.75C38.7194 52.178 38.8104 51.6883 38.9924 51.281C39.1831 50.865 39.4301 50.527 39.7334 50.267C40.0367 49.9983 40.3834 49.8033 40.7734 49.682C41.1634 49.552 41.5621 49.487 41.9694 49.487C42.4287 49.487 42.8447 49.5563 43.2174 49.695C43.5987 49.8337 43.9237 50.0243 44.1924 50.267C44.4697 50.5097 44.6821 50.8 44.8294 51.138C44.9854 51.476 45.0634 51.8443 45.0634 52.243C45.0634 52.5377 44.9811 52.763 44.8164 52.919C44.6517 53.075 44.4221 53.1747 44.1274 53.218L40.9164 53.699C41.0117 53.985 41.2067 54.2017 41.5014 54.349C41.7961 54.4877 42.1341 54.557 42.5154 54.557C42.8707 54.557 43.2044 54.5137 43.5164 54.427C43.8371 54.3317 44.0971 54.2233 44.2964 54.102C44.4351 54.1887 44.5521 54.31 44.6474 54.466C44.7427 54.622 44.7904 54.7867 44.7904 54.96C44.7904 55.35 44.6084 55.6403 44.2444 55.831C43.9671 55.9783 43.6551 56.078 43.3084 56.13C42.9617 56.182 42.6367 56.208 42.3334 56.208ZM41.9694 51.099C41.7614 51.099 41.5794 51.1337 41.4234 51.203C41.2761 51.2723 41.1547 51.3633 41.0594 51.476C40.9641 51.58 40.8904 51.7013 40.8384 51.84C40.7951 51.97 40.7691 52.1043 40.7604 52.243L42.9834 51.879C42.9574 51.7057 42.8621 51.5323 42.6974 51.359C42.5327 51.1857 42.2901 51.099 41.9694 51.099ZM49.4682 56.208C48.9568 56.208 48.4802 56.1387 48.0382 56C47.6048 55.8527 47.2235 55.636 46.8942 55.35C46.5735 55.064 46.3178 54.7043 46.1272 54.271C45.9452 53.8377 45.8542 53.3307 45.8542 52.75C45.8542 52.178 45.9452 51.6883 46.1272 51.281C46.3178 50.865 46.5648 50.527 46.8682 50.267C47.1715 49.9983 47.5182 49.8033 47.9082 49.682C48.2982 49.552 48.6968 49.487 49.1042 49.487C49.5635 49.487 49.9795 49.5563 50.3522 49.695C50.7335 49.8337 51.0585 50.0243 51.3272 50.267C51.6045 50.5097 51.8168 50.8 51.9642 51.138C52.1202 51.476 52.1982 51.8443 52.1982 52.243C52.1982 52.5377 52.1158 52.763 51.9512 52.919C51.7865 53.075 51.5568 53.1747 51.2622 53.218L48.0512 53.699C48.1465 53.985 48.3415 54.2017 48.6362 54.349C48.9308 54.4877 49.2688 54.557 49.6502 54.557C50.0055 54.557 50.3392 54.5137 50.6512 54.427C50.9718 54.3317 51.2318 54.2233 51.4312 54.102C51.5698 54.1887 51.6868 54.31 51.7822 54.466C51.8775 54.622 51.9252 54.7867 51.9252 54.96C51.9252 55.35 51.7432 55.6403 51.3792 55.831C51.1018 55.9783 50.7898 56.078 50.4432 56.13C50.0965 56.182 49.7715 56.208 49.4682 56.208ZM49.1042 51.099C48.8962 51.099 48.7142 51.1337 48.5582 51.203C48.4108 51.2723 48.2895 51.3633 48.1942 51.476C48.0988 51.58 48.0252 51.7013 47.9732 51.84C47.9298 51.97 47.9038 52.1043 47.8952 52.243L50.1182 51.879C50.0922 51.7057 49.9968 51.5323 49.8322 51.359C49.6675 51.1857 49.4248 51.099 49.1042 51.099ZM55.4719 53.829C55.4719 54.0543 55.5413 54.2147 55.6799 54.31C55.8273 54.4053 56.0309 54.453 56.2909 54.453C56.4209 54.453 56.5553 54.4443 56.6939 54.427C56.8326 54.401 56.9539 54.3707 57.0579 54.336C57.1359 54.4313 57.2009 54.5397 57.2529 54.661C57.3136 54.7737 57.3439 54.9123 57.3439 55.077C57.3439 55.4063 57.2183 55.675 56.9669 55.883C56.7243 56.091 56.2909 56.195 55.6669 56.195C54.9043 56.195 54.3149 56.0217 53.8989 55.675C53.4916 55.3283 53.2879 54.765 53.2879 53.985V48.421C53.3833 48.395 53.5176 48.369 53.6909 48.343C53.8729 48.3083 54.0636 48.291 54.2629 48.291C54.6443 48.291 54.9389 48.3603 55.1469 48.499C55.3636 48.629 55.4719 48.9107 55.4719 49.344V50.176H57.1749C57.2269 50.2713 57.2746 50.3927 57.3179 50.54C57.3699 50.6787 57.3959 50.8347 57.3959 51.008C57.3959 51.3113 57.3266 51.5323 57.1879 51.671C57.0579 51.801 56.8803 51.866 56.6549 51.866H55.4719V53.829ZM60.7966 52.841C60.7966 52.269 60.8832 51.775 61.0566 51.359C61.2299 50.9343 61.4682 50.5833 61.7716 50.306C62.0836 50.0287 62.4432 49.825 62.8506 49.695C63.2666 49.5563 63.7129 49.487 64.1896 49.487C64.3629 49.487 64.5319 49.5043 64.6966 49.539C64.8612 49.565 64.9956 49.5997 65.0996 49.643V47.537C65.1862 47.511 65.3249 47.485 65.5156 47.459C65.7062 47.4243 65.9012 47.407 66.1006 47.407C66.2912 47.407 66.4602 47.42 66.6076 47.446C66.7636 47.472 66.8936 47.524 66.9976 47.602C67.1016 47.68 67.1796 47.7883 67.2316 47.927C67.2836 48.057 67.3096 48.2303 67.3096 48.447V54.609C67.3096 55.0163 67.1189 55.3413 66.7376 55.584C66.4862 55.7487 66.1612 55.8917 65.7626 56.013C65.3639 56.143 64.9046 56.208 64.3846 56.208C63.8212 56.208 63.3142 56.13 62.8636 55.974C62.4216 55.818 62.0446 55.5927 61.7326 55.298C61.4292 55.0033 61.1952 54.6523 61.0306 54.245C60.8746 53.829 60.7966 53.361 60.7966 52.841ZM64.4886 51.216C64.0206 51.216 63.6609 51.3503 63.4096 51.619C63.1582 51.8877 63.0326 52.295 63.0326 52.841C63.0326 53.3783 63.1496 53.7857 63.3836 54.063C63.6176 54.3317 63.9556 54.466 64.3976 54.466C64.5536 54.466 64.6922 54.4443 64.8136 54.401C64.9436 54.349 65.0432 54.2927 65.1126 54.232V51.372C64.9392 51.268 64.7312 51.216 64.4886 51.216ZM70.8967 55.987C70.8101 56.013 70.6714 56.039 70.4807 56.065C70.2987 56.091 70.1081 56.104 69.9087 56.104C69.7181 56.104 69.5447 56.091 69.3887 56.065C69.2414 56.039 69.1157 55.987 69.0117 55.909C68.9077 55.831 68.8254 55.727 68.7647 55.597C68.7127 55.4583 68.6867 55.2807 68.6867 55.064V51.164C68.6867 50.9647 68.7214 50.7957 68.7907 50.657C68.8687 50.5097 68.9771 50.3797 69.1157 50.267C69.2544 50.1543 69.4234 50.0547 69.6227 49.968C69.8307 49.8727 70.0517 49.7903 70.2857 49.721C70.5197 49.6517 70.7624 49.5997 71.0137 49.565C71.2651 49.5217 71.5164 49.5 71.7677 49.5C72.1837 49.5 72.5131 49.5823 72.7557 49.747C72.9984 49.903 73.1197 50.163 73.1197 50.527C73.1197 50.6483 73.1024 50.7697 73.0677 50.891C73.0331 51.0037 72.9897 51.1077 72.9377 51.203C72.7557 51.203 72.5694 51.2117 72.3787 51.229C72.1881 51.2463 72.0017 51.2723 71.8197 51.307C71.6377 51.3417 71.4644 51.3807 71.2997 51.424C71.1437 51.4587 71.0094 51.502 70.8967 51.554V55.987ZM77.1313 56.208C76.6199 56.208 76.1433 56.1387 75.7013 56C75.2679 55.8527 74.8866 55.636 74.5573 55.35C74.2366 55.064 73.9809 54.7043 73.7903 54.271C73.6083 53.8377 73.5173 53.3307 73.5173 52.75C73.5173 52.178 73.6083 51.6883 73.7903 51.281C73.9809 50.865 74.2279 50.527 74.5313 50.267C74.8346 49.9983 75.1813 49.8033 75.5713 49.682C75.9613 49.552 76.3599 49.487 76.7673 49.487C77.2266 49.487 77.6426 49.5563 78.0153 49.695C78.3966 49.8337 78.7216 50.0243 78.9903 50.267C79.2676 50.5097 79.4799 50.8 79.6273 51.138C79.7833 51.476 79.8613 51.8443 79.8613 52.243C79.8613 52.5377 79.7789 52.763 79.6143 52.919C79.4496 53.075 79.2199 53.1747 78.9253 53.218L75.7143 53.699C75.8096 53.985 76.0046 54.2017 76.2993 54.349C76.5939 54.4877 76.9319 54.557 77.3133 54.557C77.6686 54.557 78.0023 54.5137 78.3143 54.427C78.6349 54.3317 78.8949 54.2233 79.0943 54.102C79.2329 54.1887 79.3499 54.31 79.4453 54.466C79.5406 54.622 79.5883 54.7867 79.5883 54.96C79.5883 55.35 79.4063 55.6403 79.0423 55.831C78.7649 55.9783 78.4529 56.078 78.1063 56.13C77.7596 56.182 77.4346 56.208 77.1313 56.208ZM76.7673 51.099C76.5593 51.099 76.3773 51.1337 76.2213 51.203C76.0739 51.2723 75.9526 51.3633 75.8573 51.476C75.7619 51.58 75.6883 51.7013 75.6363 51.84C75.5929 51.97 75.5669 52.1043 75.5583 52.243L77.7813 51.879C77.7553 51.7057 77.6599 51.5323 77.4953 51.359C77.3306 51.1857 77.0879 51.099 76.7673 51.099ZM83.629 54.596C83.7764 54.596 83.9367 54.583 84.11 54.557C84.292 54.5223 84.4264 54.479 84.513 54.427V53.387L83.577 53.465C83.3344 53.4823 83.135 53.5343 82.979 53.621C82.823 53.7077 82.745 53.8377 82.745 54.011C82.745 54.1843 82.81 54.3273 82.94 54.44C83.0787 54.544 83.3084 54.596 83.629 54.596ZM83.525 49.487C83.993 49.487 84.4177 49.5347 84.799 49.63C85.189 49.7253 85.5184 49.8727 85.787 50.072C86.0644 50.2627 86.2767 50.5097 86.424 50.813C86.5714 51.1077 86.645 51.4587 86.645 51.866V54.778C86.645 55.0033 86.58 55.1897 86.45 55.337C86.3287 55.4757 86.1814 55.597 86.008 55.701C85.4447 56.039 84.6517 56.208 83.629 56.208C83.1697 56.208 82.7537 56.1647 82.381 56.078C82.017 55.9913 81.7007 55.8613 81.432 55.688C81.172 55.5147 80.9684 55.2937 80.821 55.025C80.6824 54.7563 80.613 54.4443 80.613 54.089C80.613 53.491 80.7907 53.0317 81.146 52.711C81.5014 52.3903 82.0517 52.191 82.797 52.113L84.5 51.931V51.84C84.5 51.5887 84.3874 51.411 84.162 51.307C83.9454 51.1943 83.629 51.138 83.213 51.138C82.8837 51.138 82.563 51.1727 82.251 51.242C81.939 51.3113 81.6574 51.398 81.406 51.502C81.2934 51.424 81.198 51.307 81.12 51.151C81.042 50.9863 81.003 50.8173 81.003 50.644C81.003 50.4187 81.055 50.241 81.159 50.111C81.2717 49.9723 81.4407 49.8553 81.666 49.76C81.9174 49.6647 82.212 49.5953 82.55 49.552C82.8967 49.5087 83.2217 49.487 83.525 49.487ZM91.0253 49.487C91.3806 49.487 91.7273 49.539 92.0653 49.643C92.412 49.7383 92.711 49.8857 92.9623 50.085C93.2223 49.9117 93.5126 49.7687 93.8333 49.656C94.1626 49.5433 94.557 49.487 95.0163 49.487C95.3456 49.487 95.6663 49.5303 95.9783 49.617C96.299 49.7037 96.5806 49.8423 96.8233 50.033C97.0746 50.215 97.274 50.462 97.4213 50.774C97.5686 51.0773 97.6423 51.45 97.6423 51.892V55.987C97.5556 56.013 97.417 56.039 97.2263 56.065C97.0443 56.091 96.8536 56.104 96.6543 56.104C96.4636 56.104 96.2903 56.091 96.1343 56.065C95.987 56.039 95.8613 55.987 95.7573 55.909C95.6533 55.831 95.571 55.727 95.5103 55.597C95.4583 55.4583 95.4323 55.2807 95.4323 55.064V51.957C95.4323 51.697 95.3586 51.5107 95.2113 51.398C95.064 51.2767 94.8646 51.216 94.6133 51.216C94.492 51.216 94.362 51.2463 94.2233 51.307C94.0846 51.359 93.9806 51.4153 93.9113 51.476C93.92 51.5107 93.9243 51.5453 93.9243 51.58C93.9243 51.606 93.9243 51.632 93.9243 51.658V55.987C93.829 56.013 93.686 56.039 93.4953 56.065C93.3133 56.091 93.127 56.104 92.9363 56.104C92.7456 56.104 92.5723 56.091 92.4163 56.065C92.269 56.039 92.1433 55.987 92.0393 55.909C91.9353 55.831 91.853 55.727 91.7923 55.597C91.7403 55.4583 91.7143 55.2807 91.7143 55.064V51.957C91.7143 51.697 91.632 51.5107 91.4673 51.398C91.3113 51.2767 91.1206 51.216 90.8953 51.216C90.7393 51.216 90.605 51.242 90.4923 51.294C90.3796 51.3373 90.2843 51.3807 90.2063 51.424V55.987C90.1196 56.013 89.981 56.039 89.7903 56.065C89.6083 56.091 89.4176 56.104 89.2183 56.104C89.0276 56.104 88.8543 56.091 88.6983 56.065C88.551 56.039 88.4253 55.987 88.3213 55.909C88.2173 55.831 88.135 55.727 88.0743 55.597C88.0223 55.4583 87.9963 55.2807 87.9963 55.064V51.138C87.9963 50.904 88.044 50.7177 88.1393 50.579C88.2433 50.4403 88.382 50.3103 88.5553 50.189C88.85 49.981 89.214 49.812 89.6473 49.682C90.0893 49.552 90.5486 49.487 91.0253 49.487ZM104.32 54.115C104.32 54.7737 104.073 55.2893 103.579 55.662C103.085 56.0347 102.357 56.221 101.395 56.221C101.031 56.221 100.693 56.195 100.381 56.143C100.069 56.091 99.8008 56.013 99.5755 55.909C99.3588 55.7963 99.1855 55.6577 99.0555 55.493C98.9341 55.3283 98.8735 55.1333 98.8735 54.908C98.8735 54.7 98.9168 54.5267 99.0035 54.388C99.0901 54.2407 99.1941 54.1193 99.3155 54.024C99.5668 54.1627 99.8528 54.2883 100.173 54.401C100.503 54.505 100.88 54.557 101.304 54.557C101.573 54.557 101.777 54.518 101.915 54.44C102.063 54.362 102.136 54.258 102.136 54.128C102.136 54.0067 102.084 53.9113 101.98 53.842C101.876 53.7727 101.703 53.7163 101.46 53.673L101.07 53.595C100.316 53.4477 99.7531 53.218 99.3805 52.906C99.0165 52.5853 98.8345 52.1303 98.8345 51.541C98.8345 51.2203 98.9038 50.93 99.0425 50.67C99.1811 50.41 99.3761 50.1933 99.6275 50.02C99.8788 49.8467 100.178 49.7123 100.524 49.617C100.88 49.5217 101.27 49.474 101.694 49.474C102.015 49.474 102.314 49.5 102.591 49.552C102.877 49.5953 103.124 49.6647 103.332 49.76C103.54 49.8553 103.705 49.981 103.826 50.137C103.948 50.2843 104.008 50.462 104.008 50.67C104.008 50.8693 103.969 51.0427 103.891 51.19C103.822 51.3287 103.731 51.4457 103.618 51.541C103.549 51.4977 103.445 51.4543 103.306 51.411C103.168 51.359 103.016 51.3157 102.851 51.281C102.687 51.2377 102.518 51.203 102.344 51.177C102.18 51.151 102.028 51.138 101.889 51.138C101.603 51.138 101.382 51.1727 101.226 51.242C101.07 51.3027 100.992 51.4023 100.992 51.541C100.992 51.6363 101.036 51.7143 101.122 51.775C101.209 51.8357 101.374 51.892 101.616 51.944L102.019 52.035C102.851 52.2257 103.441 52.49 103.787 52.828C104.143 53.1573 104.32 53.5863 104.32 54.115Z" fill="#3F2C03"/>
</svg>
