<svg width="64" height="40" viewBox="0 0 64 40" fill="none" xmlns="http://www.w3.org/2000/svg">
<path d="M34.0163 11.5383C33.4816 11.0036 32.7563 10.7031 32 10.7031C31.2437 10.7031 30.5184 11.0036 29.9836 11.5383C29.4489 12.0731 29.1484 12.7984 29.1484 13.5547C29.1484 14.311 29.4489 15.0363 29.9836 15.571C30.5184 16.1058 31.2437 16.4063 32 16.4063C32.7563 16.4063 33.4816 16.1058 34.0163 15.571C34.5511 15.0363 34.8515 14.311 34.8515 13.5547C34.8515 12.7984 34.5511 12.0731 34.0163 11.5383Z" fill="#3F2C03"/>
<path fill-rule="evenodd" clip-rule="evenodd" d="M18 0H46C49.3137 0 52 2.68629 52 6V34C52 37.3137 49.3137 40 46 40H18C14.6863 40 12 37.3137 12 34V6C12 2.68629 14.6863 0 18 0ZM38.875 13.5547C38.875 17.3437 35.7969 20.4297 32 20.4297C28.2109 20.4297 25.125 17.3437 25.125 13.5547C25.125 9.76563 28.2109 6.67969 32 6.67969C35.789 6.67969 38.875 9.76563 38.875 13.5547ZM38.7656 24.4062C37.5391 25.1731 36.1921 25.7277 34.7812 26.0469L34.7578 26.0391L38.6094 29.8906C38.7967 30.0778 38.9453 30.3001 39.0467 30.5447C39.1481 30.7894 39.2002 31.0516 39.2002 31.3164C39.2002 31.5812 39.1481 31.8434 39.0467 32.0881C38.9453 32.3327 38.7967 32.555 38.6094 32.7422C38.4222 32.9295 38.1999 33.0781 37.9553 33.1795C37.7106 33.2809 37.4484 33.3331 37.1836 33.3331C36.9188 33.3331 36.6565 33.2809 36.4119 33.1795C36.1673 33.0781 35.945 32.9295 35.7578 32.7422L31.9765 28.9609L28.1953 32.75C27.8172 33.1281 27.3043 33.3406 26.7695 33.3406C26.2347 33.3406 25.7219 33.1281 25.3437 32.75C24.9656 32.3719 24.7532 31.859 24.7532 31.3242C24.7532 30.7894 24.9656 30.2766 25.3437 29.8984L29.1719 26.0469C27.7656 25.7344 26.4297 25.1875 25.1875 24.4062C24.9638 24.2647 24.7702 24.0804 24.6178 23.864C24.4653 23.6476 24.357 23.4033 24.2989 23.1451C24.2409 22.8868 24.2343 22.6196 24.2795 22.3588C24.3247 22.098 24.4209 21.8487 24.5625 21.625C24.7041 21.4013 24.8883 21.2077 25.1047 21.0553C25.3211 20.9028 25.5654 20.7945 25.8237 20.7365C26.0819 20.6784 26.3491 20.6718 26.6099 20.717C26.8707 20.7623 27.1201 20.8584 27.3437 21C28.733 21.8682 30.3383 22.3285 31.9765 22.3285C33.6148 22.3285 35.2201 21.8682 36.6094 21C36.833 20.8584 37.0824 20.7623 37.3432 20.717C37.604 20.6718 37.8712 20.6784 38.1294 20.7365C38.3877 20.7945 38.632 20.9028 38.8484 21.0553C39.0648 21.2077 39.249 21.4013 39.3906 21.625C39.5322 21.8487 39.6283 22.098 39.6736 22.3588C39.7188 22.6196 39.7122 22.8868 39.6542 23.1451C39.5961 23.4033 39.4878 23.6476 39.3353 23.864C39.1829 24.0804 38.9893 24.2647 38.7656 24.4062Z" fill="#3F2C03"/>
</svg>
