<svg width="64" height="40" viewBox="0 0 64 40" fill="none" xmlns="http://www.w3.org/2000/svg">
<path d="M24.1127 19.0583V15.8648H38.1292C38.4977 15.8648 38.7648 15.8965 38.9427 15.9376C39.0025 15.9514 39.0448 15.9645 39.0729 15.9746L39.0763 15.9837C39.1023 16.0567 39.1352 16.2011 39.1352 16.4396V18.4833C39.1352 18.7408 39.1021 18.8945 39.0755 18.9729C39.051 18.9798 39.019 18.9877 38.9782 18.9959C38.7939 19.0329 38.5177 19.0583 38.1292 19.0583H24.1127Z" fill="#3F2C03"/>
<path fill-rule="evenodd" clip-rule="evenodd" d="M17.8333 32.3423V10.5H39.1444C40.44 10.5 41.4416 10.6354 42.2033 10.8481C42.916 11.0816 43.4965 11.4199 44.0263 11.8993C44.5276 12.4213 44.862 12.9765 45.0584 13.6023C45.2721 14.2836 45.4146 15.2436 45.4146 16.5492V18.374C45.4146 20.6151 45.0076 22.0333 44.4264 22.8028C43.86 23.5522 42.8558 24.1397 41.171 24.4013C40.7357 24.4688 40.3681 24.7606 40.2034 25.1691C40.0387 25.5777 40.1012 26.0428 40.368 26.3934L44.8946 32.3423H41.0397L35.9225 24.9608C35.689 24.6239 35.3051 24.4229 34.8952 24.4229H22.8627C22.1724 24.4229 21.6127 24.9826 21.6127 25.6729V32.3423H17.8333ZM22.8627 13.3648C22.1724 13.3648 21.6127 13.9244 21.6127 14.6148V20.3083C21.6127 20.9987 22.1724 21.5583 22.8627 21.5583H38.1292C38.6055 21.5583 39.0624 21.5288 39.4702 21.447C39.8107 21.3786 40.2063 21.2568 40.5551 21.0118C40.6063 20.9759 40.6565 20.9373 40.7053 20.8958C41.4069 20.3002 41.6352 19.3843 41.6352 18.4833V16.4396C41.6352 15.5619 41.4003 14.6537 40.7057 14.0637C40.345 13.7572 39.9054 13.5941 39.5055 13.5017C39.0913 13.406 38.6253 13.3648 38.1292 13.3648H22.8627Z" fill="#3F2C03"/>
<path fill-rule="evenodd" clip-rule="evenodd" d="M17.2 0C14.3281 0 12 2.32812 12 5.2V34.8C12 37.6719 14.3281 40 17.2 40H46.8C49.6719 40 52 37.6719 52 34.8V5.2C52 2.32812 49.6719 0 46.8 0H17.2ZM48.8334 6.08333C48.8334 7.23396 47.9004 8.16667 46.7504 8.16667C45.5996 8.16667 44.6667 7.23396 44.6667 6.08333C44.6667 4.93271 45.5996 4 46.7504 4C47.9004 4 48.8334 4.93271 48.8334 6.08333ZM16.5833 8C15.893 8 15.3333 8.55964 15.3333 9.25V33.5923C15.3333 34.2826 15.893 34.8423 16.5833 34.8423H22.8627C23.5531 34.8423 24.1127 34.2826 24.1127 33.5923V26.9229H34.2408L39.3579 34.3044C39.5915 34.6413 39.9753 34.8423 40.3852 34.8423H47.4165C47.8915 34.8423 48.3255 34.573 48.5364 34.1474C48.7474 33.7218 48.6989 33.2134 48.4112 32.8354L43.5013 26.3827C44.6994 25.9436 45.6966 25.2686 46.4211 24.3097C47.494 22.8896 47.9146 20.804 47.9146 18.374V16.5492C47.9146 15.081 47.7567 13.8514 47.4437 12.854C47.1166 11.8113 46.5563 10.9144 45.7932 10.1301C45.7766 10.1131 45.7595 10.0965 45.7419 10.0804C44.9305 9.33665 44.0211 8.80848 42.9507 8.46232C42.936 8.45758 42.9213 8.4531 42.9065 8.44891C41.8659 8.15442 40.6182 8 39.1444 8H16.5833Z" fill="#3F2C03"/>
</svg>
